<?xml version="1.0" encoding="utf-8"?>
<!-- Generator: Adobe Illustrator 20.1.0, SVG Export Plug-In . SVG Version: 6.00 Build 0)  -->
<svg version="1.1" id="Ebene_1" xmlns="http://www.w3.org/2000/svg" xmlns:xlink="http://www.w3.org/1999/xlink" x="0px" y="0px"
	 viewBox="0 0 300 46" style="enable-background:new 0 0 300 46;" xml:space="preserve">
<style type="text/css">
	.st0{fill:#FFFFFF;}
</style>
<path class="st0" d="M19.9,28.2h6v-6h-6V28.2z M19.9,20.3h6V2.4h-6V20.3z"/>
<g>
	<path class="st0" d="M43.9,23.6c0-8.9-5.5-16.5-13.3-19.6v6.4c4.5,2.7,7.5,7.6,7.5,13.2c0,8.4-6.8,15.3-15.3,15.3
		S7.6,32.1,7.6,23.6c0-5.7,3.1-10.7,7.7-13.3V4C7.4,7,1.8,14.7,1.8,23.6c0,11.6,9.4,21.1,21.1,21.1C34.5,44.7,43.9,35.3,43.9,23.6"
		/>
	<path class="st0" d="M68.2,31.7c0-1.1-0.4-1.9-1.1-2.6c-0.8-0.7-2.1-1.3-4-1.8c-3.3-1-5.9-2.1-7.6-3.4c-1.7-1.3-2.6-3.1-2.6-5.4
		c0-2.3,1-4.2,2.9-5.6c2-1.5,4.5-2.2,7.5-2.2c3.1,0,5.6,0.8,7.5,2.5c1.9,1.6,2.9,3.7,2.8,6.1l0,0.1h-5.4c0-1.3-0.4-2.3-1.3-3.1
		c-0.9-0.8-2.1-1.2-3.6-1.2c-1.5,0-2.7,0.3-3.5,1c-0.8,0.7-1.2,1.5-1.2,2.6c0,1,0.4,1.7,1.3,2.3c0.9,0.6,2.4,1.3,4.5,1.9
		c3.1,0.9,5.4,2,7,3.4c1.6,1.4,2.4,3.3,2.4,5.6c0,2.4-0.9,4.3-2.8,5.7c-1.9,1.4-4.4,2.1-7.5,2.1c-3.1,0-5.7-0.8-8-2.4
		c-2.3-1.6-3.4-3.8-3.3-6.6l0-0.1h5.5c0,1.7,0.5,2.9,1.5,3.7c1,0.8,2.4,1.2,4.3,1.2c1.5,0,2.7-0.3,3.5-0.9
		C67.8,33.6,68.2,32.7,68.2,31.7"/>
	<path class="st0" d="M84.7,35.2c1,0,1.9-0.2,2.6-0.7c0.8-0.5,1.3-1.1,1.6-1.7v-2.9h-3.1c-1.2,0-2.1,0.3-2.7,0.9
		c-0.6,0.6-0.9,1.3-0.9,2.2c0,0.7,0.2,1.3,0.7,1.7C83.3,35,83.9,35.2,84.7,35.2 M89.8,39c-0.2-0.5-0.4-1-0.5-1.5
		c-0.2-0.5-0.3-1.1-0.3-1.6c-0.6,1-1.3,1.9-2.3,2.5c-0.9,0.7-2.1,1-3.4,1c-2.2,0-3.9-0.6-5-1.7c-1.2-1.1-1.8-2.7-1.8-4.6
		c0-2,0.8-3.6,2.4-4.7c1.6-1.1,3.9-1.7,6.9-1.7h3.1V25c0-1-0.3-1.8-0.8-2.3c-0.5-0.6-1.3-0.8-2.3-0.8c-0.9,0-1.6,0.2-2.1,0.7
		c-0.5,0.4-0.7,1.1-0.7,1.8l-5.4,0l0-0.1c-0.1-1.8,0.7-3.3,2.3-4.5c1.6-1.3,3.7-1.9,6.4-1.9c2.5,0,4.5,0.6,6.1,1.9
		c1.6,1.3,2.3,3.1,2.3,5.4v8.6c0,1,0.1,1.9,0.2,2.8c0.1,0.9,0.4,1.7,0.7,2.6H89.8z"/>
</g>
<rect x="99.1" y="9" class="st0" width="5.6" height="30"/>
<g>
	<path class="st0" d="M118,22.1c-1,0-1.9,0.4-2.5,1.2c-0.6,0.8-1,1.8-1.1,3.1l0.1,0.1h6.9V26c0-1.2-0.3-2.1-0.8-2.9
		C120,22.5,119.2,22.1,118,22.1 M118.5,39.4c-3,0-5.4-1-7.2-2.9c-1.8-1.9-2.7-4.4-2.7-7.3v-0.8c0-3.1,0.8-5.6,2.5-7.6
		c1.7-2,4-3,6.8-3c2.8,0,5,0.8,6.5,2.5c1.6,1.7,2.3,4,2.3,6.9v3.1h-12.4l0,0.1c0.1,1.4,0.6,2.5,1.4,3.4c0.8,0.9,1.9,1.3,3.3,1.3
		c1.2,0,2.3-0.1,3.1-0.4s1.7-0.6,2.7-1.2l1.5,3.5c-0.8,0.7-2,1.3-3.3,1.7C121.7,39.2,120.2,39.4,118.5,39.4"/>
	<path class="st0" d="M141.4,33.3c0-0.6-0.3-1.1-0.9-1.6c-0.6-0.4-1.7-0.8-3.3-1.2c-2.5-0.5-4.3-1.2-5.6-2.2c-1.3-1-1.9-2.3-1.9-4
		c0-1.8,0.8-3.3,2.3-4.6c1.5-1.3,3.5-1.9,6-1.9c2.7,0,4.8,0.6,6.3,1.9c1.6,1.2,2.3,2.8,2.3,4.7l0,0.1h-5.4c0-0.8-0.3-1.5-0.8-2
		c-0.5-0.5-1.3-0.8-2.3-0.8c-0.9,0-1.6,0.2-2.1,0.7c-0.5,0.4-0.8,1-0.8,1.7c0,0.6,0.3,1.2,0.8,1.6s1.7,0.8,3.3,1.1
		c2.6,0.5,4.5,1.3,5.7,2.3c1.2,1,1.9,2.4,1.9,4.1c0,1.9-0.8,3.4-2.4,4.6c-1.6,1.2-3.7,1.8-6.3,1.8c-2.8,0-5-0.7-6.6-2.1
		c-1.6-1.4-2.4-3-2.3-4.8l0-0.1h5.1c0,1.1,0.4,1.9,1.1,2.4c0.7,0.5,1.6,0.8,2.7,0.8c1,0,1.8-0.2,2.4-0.6
		C141.2,34.5,141.4,34,141.4,33.3"/>
</g>
<polygon class="st0" points="158.3,11 165.4,31.6 165.5,31.6 172.7,11 180.1,11 180.1,39 174.5,39 174.5,30.6 175,18.3 174.9,18.3 
	167.4,39 163.6,39 156.1,18.3 156,18.3 156.6,30.6 156.6,39 151,39 151,11 "/>
<g>
	<path class="st0" d="M192,35.2c1,0,1.9-0.2,2.6-0.7c0.8-0.5,1.3-1.1,1.6-1.7v-2.9H193c-1.2,0-2.1,0.3-2.7,0.9
		c-0.6,0.6-0.9,1.3-0.9,2.2c0,0.7,0.2,1.3,0.7,1.7C190.5,35,191.2,35.2,192,35.2 M197.1,39c-0.2-0.5-0.4-1-0.5-1.5
		c-0.1-0.5-0.3-1.1-0.3-1.6c-0.6,1-1.3,1.9-2.3,2.5c-0.9,0.7-2.1,1-3.4,1c-2.2,0-3.9-0.6-5-1.7c-1.2-1.1-1.8-2.7-1.8-4.6
		c0-2,0.8-3.6,2.4-4.7c1.6-1.1,3.9-1.7,6.9-1.7h3.1V25c0-1-0.3-1.8-0.8-2.3c-0.5-0.6-1.3-0.8-2.3-0.8c-0.9,0-1.6,0.2-2.1,0.7
		c-0.5,0.4-0.7,1.1-0.7,1.8l-5.4,0l0-0.1c-0.1-1.8,0.7-3.3,2.3-4.5c1.6-1.3,3.7-1.9,6.4-1.9c2.5,0,4.5,0.6,6.1,1.9
		c1.6,1.3,2.3,3.1,2.3,5.4v8.6c0,1,0.1,1.9,0.2,2.8c0.1,0.9,0.4,1.7,0.7,2.6H197.1z"/>
	<path class="st0" d="M214.8,35.1c1,0,1.8-0.3,2.4-0.9c0.6-0.6,0.9-1.4,0.9-2.3h5.1l0.1,0.1c0.1,2.1-0.7,3.9-2.4,5.3
		c-1.6,1.4-3.7,2.1-6.1,2.1c-3.1,0-5.5-1-7.2-2.9c-1.7-2-2.5-4.5-2.5-7.6v-0.6c0-3.1,0.8-5.6,2.5-7.6c1.7-2,4.1-3,7.2-3
		c2.6,0,4.6,0.7,6.2,2.2c1.6,1.5,2.3,3.4,2.3,5.8l0,0.1h-5.1c0-1.1-0.3-2-0.9-2.7c-0.6-0.7-1.4-1.1-2.4-1.1c-1.5,0-2.5,0.6-3.1,1.7
		c-0.6,1.2-0.9,2.6-0.9,4.5v0.6c0,1.9,0.3,3.4,0.9,4.5C212.2,34.5,213.3,35.1,214.8,35.1"/>
	<path class="st0" d="M231.9,21c0.7-1,1.5-1.7,2.4-2.2c0.9-0.5,2-0.8,3.2-0.8c2.2,0,3.9,0.7,5.1,2.2c1.2,1.4,1.9,3.7,1.9,6.7v12.4
		h-5.6V26.8c0-1.6-0.3-2.8-0.9-3.4c-0.6-0.7-1.4-1-2.6-1c-0.8,0-1.5,0.1-2,0.4c-0.6,0.3-1.1,0.7-1.5,1.2v15.3h-5.6v-30h5.6V21z"/>
</g>
<rect x="249" y="18.2" class="st0" width="5.6" height="20.8"/>
<g>
	<path class="st0" d="M264.3,18.2l0.3,3c0.7-1.1,1.5-1.9,2.6-2.5c1-0.6,2.1-0.9,3.4-0.9c2.1,0,3.7,0.7,4.9,2
		c1.2,1.3,1.8,3.4,1.8,6.2v13h-5.6V26c0-1.4-0.3-2.4-0.8-3c-0.6-0.6-1.4-0.9-2.6-0.9c-0.7,0-1.4,0.2-2,0.5c-0.6,0.3-1.1,0.7-1.5,1.3
		V39h-5.6V18.2H264.3z"/>
	<path class="st0" d="M290.2,22.1c-1,0-1.9,0.4-2.5,1.2c-0.6,0.8-1,1.8-1.1,3.1l0.1,0.1h6.9V26c0-1.2-0.3-2.1-0.8-2.9
		C292.1,22.5,291.3,22.1,290.2,22.1 M290.7,39.4c-3,0-5.4-1-7.2-2.9c-1.8-1.9-2.7-4.4-2.7-7.3v-0.8c0-3.1,0.9-5.6,2.6-7.6s4-3,6.8-3
		c2.8,0,5,0.8,6.5,2.5c1.6,1.7,2.3,4,2.3,6.9v3.1h-12.4l0,0.1c0.1,1.4,0.6,2.5,1.4,3.4c0.8,0.9,1.9,1.3,3.3,1.3
		c1.2,0,2.3-0.1,3.1-0.4c0.8-0.3,1.7-0.6,2.7-1.2l1.5,3.5c-0.8,0.7-2,1.3-3.3,1.7C293.9,39.2,292.3,39.4,290.7,39.4"/>
</g>
<rect x="249" y="9.1" class="st0" width="5.6" height="5.6"/>
</svg>
